<?xml version="1.0" standalone="no"?>
<svg version="1.0" xmlns="http://www.w3.org/2000/svg"
 width="400" height="400" viewBox="0 0 800 800"
 preserveAspectRatio="xMidYMid meet">
<!-- Background circle for visibility on dark tabs -->
<circle cx="400" cy="400" r="390" fill="#FDF8F5"/>
<circle cx="400" cy="400" r="390" fill="none" stroke="#4A2040" stroke-width="8"/>
<g transform="translate(0.000000,795.000000) scale(0.100000,-0.100000)"
fill="#4A2040" stroke="none">
<path d="M3819 6960 c-145 -55 -237 -195 -226 -345 5 -72 26 -155 39 -155 5 0
8 -7 8 -15 0 -24 89 -107 140 -132 143 -70 301 -42 419 74 52 52 77 103 90
181 8 57 1 149 -14 187 -27 65 -103 151 -165 184 -78 42 -211 52 -291 21z"/>
<path d="M2886 6358 c-4 -79 -11 -168 -17 -198 -6 -30 -15 -80 -20 -110 -25
-133 -66 -258 -119 -363 -11 -22 -20 -43 -20 -47 0 -5 -15 -30 -32 -55 -18
-26 -38 -56 -44 -67 -17 -28 -120 -136 -184 -189 -55 -47 -89 -68 -190 -120
-176 -89 -478 -158 -697 -159 -129 0 -135 -2 -117 -40 8 -15 22 -34 31 -41 18
-15 137 -157 188 -223 82 -107 182 -294 225 -416 47 -138 53 -171 53 -330 1
-162 -10 -232 -54 -350 -34 -92 -128 -271 -180 -345 -27 -38 -61 -86 -74 -107
-13 -20 -29 -39 -34 -42 -6 -4 -44 -47 -87 -97 -63 -76 -74 -93 -63 -104 9 -8
68 -17 163 -24 214 -16 387 -50 518 -102 74 -29 238 -114 283 -147 66 -48 165
-145 205 -202 79 -110 173 -313 200 -430 41 -174 59 -299 64 -453 2 -56 9
-103 16 -112 13 -15 7 -19 156 117 66 60 219 177 244 186 8 3 33 18 55 32 78
53 174 95 295 130 25 8 50 17 55 21 12 8 77 17 188 25 116 9 301 -21 412 -67
94 -39 200 -91 240 -117 22 -14 58 -37 80 -51 79 -51 268 -204 309 -250 22
-24 36 -27 36 -7 0 8 7 16 15 20 11 4 15 21 15 66 0 270 99 646 218 821 9 14
29 43 44 65 32 48 144 156 218 211 61 46 211 121 280 142 25 7 54 17 65 21 97
36 278 68 447 80 112 7 142 13 158 28 20 18 20 18 -11 48 -31 28 -112 124
-176 207 -83 107 -109 149 -176 282 -60 121 -67 137 -67 154 0 9 -4 21 -9 27
-5 5 -19 60 -31 123 -23 121 -24 278 -2 386 25 119 125 355 194 456 52 76 167
225 188 244 36 33 103 115 97 121 -17 17 -268 -137 -402 -247 -76 -62 -221
-209 -248 -249 -8 -14 -36 -54 -61 -90 -25 -36 -46 -70 -46 -77 0 -7 -8 -27
-18 -45 -35 -63 -47 -146 -47 -318 0 -165 6 -205 48 -315 29 -77 134 -215 251
-330 165 -162 265 -238 409 -310 81 -40 109 -62 66 -52 -13 3 -78 19 -144 36
-178 45 -418 67 -560 52 -235 -25 -336 -59 -456 -152 -184 -142 -290 -296
-331 -479 -47 -210 -30 -564 36 -775 17 -54 20 -85 9 -85 -8 0 -16 13 -65 99
-23 41 -99 154 -108 161 -3 3 -27 32 -52 65 -65 84 -290 295 -315 295 -6 0
-16 7 -23 15 -14 17 -113 66 -180 89 -79 27 -268 41 -378 27 -207 -25 -348
-105 -554 -317 -53 -55 -112 -119 -132 -144 -41 -52 -106 -148 -106 -156 0 -3
-13 -25 -28 -48 -15 -22 -36 -58 -45 -78 -10 -21 -22 -38 -27 -38 -6 0 -11
-10 -11 -22 -1 -17 -2 -19 -6 -6 -2 10 5 44 16 75 20 60 41 133 47 168 2 11
11 58 19 105 17 101 20 414 4 504 -18 105 -60 225 -101 289 -41 64 -234 267
-254 267 -6 0 -17 7 -25 16 -21 25 -122 72 -201 93 -161 42 -362 50 -571 22
-82 -11 -274 -54 -319 -72 -14 -6 -35 -9 -45 -7 -12 3 3 14 47 36 100 50 149
80 230 140 162 122 337 302 409 422 77 127 103 222 106 385 5 254 -33 377
-172 557 -51 66 -328 328 -347 328 -3 0 -26 15 -51 34 -24 19 -75 49 -112 68
-38 18 -69 36 -71 40 -2 5 -12 8 -23 8 -10 0 -19 7 -19 15 0 11 4 13 18 6 21
-12 260 -65 360 -80 123 -19 375 -14 491 9 114 23 151 37 250 92 73 41 227
187 276 263 41 64 94 164 99 190 3 11 11 52 19 90 44 209 16 622 -55 807 -5
14 -8 35 -6 45 2 13 11 3 29 -32 121 -235 332 -475 547 -623 53 -36 109 -62
191 -88 68 -23 92 -25 236 -25 194 0 267 16 399 88 194 105 452 384 581 626
11 20 23 37 27 37 5 0 8 10 9 23 0 12 3 17 5 10 3 -7 -8 -65 -24 -130 -17 -65
-36 -161 -43 -213 -16 -118 -16 -414 0 -495 7 -33 15 -75 18 -94 3 -19 14 -49
24 -65 11 -17 19 -37 19 -44 0 -7 20 -44 45 -82 46 -69 240 -270 261 -270 6 0
17 -7 24 -15 25 -31 144 -73 282 -101 64 -13 120 -15 282 -11 233 5 369 27
491 76 64 26 96 32 110 21 10 -8 15 -8 20 1 14 21 -19 29 -126 29 -162 0 -377
35 -546 89 -96 31 -243 101 -263 126 -7 8 -18 15 -25 15 -6 0 -20 9 -30 20
-10 11 -23 20 -30 20 -29 0 -243 249 -245 284 0 5 -7 17 -14 25 -28 30 -115
257 -116 298 0 12 -4 25 -10 28 -5 3 -10 21 -10 40 0 19 -4 37 -10 40 -5 3
-10 28 -10 55 0 27 -4 60 -10 74 -5 14 -12 85 -15 158 -4 73 -11 135 -16 139
-5 3 -7 13 -3 22 12 34 -18 16 -104 -59 -48 -42 -92 -83 -98 -91 -45 -54 -409
-273 -455 -273 -10 0 -20 -4 -23 -9 -3 -5 -18 -11 -33 -14 -16 -3 -64 -15
-108 -26 -107 -28 -253 -37 -341 -22 -96 17 -167 34 -179 42 -5 3 -28 12 -50
19 -100 31 -274 119 -322 163 -11 9 -23 17 -26 17 -13 0 -161 118 -245 194
-45 42 -89 76 -96 76 -10 0 -15 -34 -20 -142z m2084 -4819 c0 -5 -4 -9 -10 -9
-5 0 -10 7 -10 16 0 8 5 12 10 9 6 -3 10 -10 10 -16z"/>
<path d="M1980 6198 c-78 -32 -97 -42 -137 -75 -42 -35 -55 -52 -88 -123 -22
-47 -36 -134 -30 -189 12 -107 90 -217 189 -268 96 -49 234 -50 326 -3 53 28
129 109 157 170 22 46 26 69 26 145 1 82 -2 97 -31 153 -53 103 -114 155 -220
187 -54 17 -155 18 -192 3z"/>
<path d="M5688 6190 c-155 -59 -257 -225 -230 -376 14 -80 46 -147 90 -192 46
-46 79 -72 92 -72 5 0 26 -9 47 -21 33 -18 50 -21 138 -17 115 4 158 22 239
104 57 56 75 91 92 169 33 152 -59 335 -196 389 -25 10 -53 22 -62 27 -30 15
-159 9 -210 -11z"/>
<path d="M3730 5204 c-168 -34 -199 -45 -320 -104 -132 -65 -243 -145 -340
-244 -81 -84 -160 -178 -160 -192 0 -3 -8 -18 -19 -32 -31 -46 -67 -115 -81
-157 -7 -22 -16 -45 -21 -51 -14 -17 -48 -160 -64 -264 -21 -142 -19 -255 10
-420 9 -51 70 -232 96 -282 65 -130 111 -194 224 -315 198 -211 429 -329 730
-374 120 -17 341 -3 470 30 22 5 52 13 68 17 15 3 30 10 33 15 3 5 13 9 23 9
28 0 227 107 295 159 84 63 265 247 272 277 3 13 10 24 14 24 23 0 126 210
160 324 76 260 76 494 -2 746 -34 109 -118 270 -191 366 -65 85 -268 274 -295
274 -5 0 -15 7 -22 15 -15 17 -197 108 -260 129 -152 50 -201 57 -395 61 -107
2 -182 -2 -225 -11z"/>
<path d="M1235 4336 c-163 -40 -285 -187 -285 -344 0 -125 93 -270 208 -324
53 -25 208 -38 246 -20 11 5 38 17 59 27 20 9 63 43 95 76 69 70 102 151 102
246 0 68 -32 157 -73 204 -14 16 -27 33 -29 37 -2 5 -26 25 -55 44 -75 52
-186 74 -268 54z"/>
<path d="M6500 4337 c-30 -7 -68 -21 -85 -32 -41 -25 -125 -107 -125 -121 0
-6 -9 -19 -20 -29 -11 -10 -20 -28 -20 -41 0 -13 -4 -26 -10 -29 -18 -11 -12
-156 10 -214 21 -57 33 -75 94 -134 109 -107 271 -127 415 -52 47 24 115 97
140 149 31 67 43 148 31 218 -10 63 -18 81 -63 149 -74 108 -230 166 -367 136z"/>
<path d="M2005 2470 c-3 -5 -15 -10 -26 -10 -58 0 -185 -102 -219 -175 -48
-106 -46 -218 5 -330 15 -33 107 -126 143 -144 70 -37 216 -54 260 -32 9 5 39
19 67 32 84 41 154 123 180 214 22 75 14 185 -18 247 -29 59 -85 128 -103 128
-8 0 -14 4 -14 8 0 12 -55 41 -107 57 -55 17 -159 20 -168 5z"/>
<path d="M5725 2470 c-3 -5 -15 -10 -25 -10 -27 0 -84 -34 -132 -78 -77 -71
-124 -206 -108 -309 24 -145 112 -240 271 -291 44 -15 156 -16 164 -2 3 6 15
10 25 10 29 0 90 37 136 82 47 45 85 117 105 196 15 61 2 146 -33 216 -21 42
-105 136 -122 136 -5 0 -17 6 -25 14 -40 35 -239 63 -256 36z"/>
<path d="M3870 1696 c-112 -25 -200 -94 -247 -195 -22 -47 -26 -70 -27 -147 0
-82 2 -96 32 -156 22 -45 49 -80 81 -107 27 -23 52 -41 57 -41 4 0 15 -7 25
-16 10 -9 50 -21 90 -28 60 -10 84 -10 138 2 37 8 73 21 82 28 8 8 20 14 25
14 23 0 115 95 134 137 39 89 51 249 19 268 -5 4 -9 14 -9 24 0 82 -139 196
-270 221 -62 12 -59 12 -130 -4z"/>
</g>
</svg>
